<svg xmlns="http://www.w3.org/2000/svg" style="display:none">
<symbol id="hero-people" viewBox="0 0 900 650">
  <defs><linearGradient id="g" x1="0" x2="1"><stop stop-color="#2110b8"/><stop offset="1" stop-color="#34a39b"/></linearGradient></defs>
  <path d="M15 520 C180 430 260 470 380 390 S620 250 880 320" fill="none" stroke="#7dd3c7" stroke-width="20" opacity=".22"/>
  <path d="M0 600 C220 500 270 540 410 450 S620 330 900 410" fill="none" stroke="#2110b8" stroke-width="8" opacity=".35"/>
  <path d="M0 560 C210 455 280 505 420 420 S670 280 900 350" fill="none" stroke="#34a39b" stroke-width="12" opacity=".25"/>
  <g transform="translate(180 130)"><circle cx="110" cy="82" r="54" fill="#ffa58d"/><path d="M64 61c10-50 102-62 130-23 12 18-18 35-65 30-21-2-43 0-65-7z" fill="#76262d"/><path d="M70 330h88l33 235h-85z" fill="#9ddcc9"/><path d="M174 330h82l18 235h-91z" fill="#9ddcc9"/><path d="M40 160c60-42 205-49 285 6l-32 185H73z" fill="#2110b8"/><path d="M43 177l-58 98 18 180" stroke="#ffa58d" stroke-width="46" stroke-linecap="round" fill="none"/><path d="M321 171l82 54-44 120" stroke="#ffa58d" stroke-width="46" stroke-linecap="round" fill="none"/><rect x="390" y="168" width="110" height="34" rx="17" fill="#2110b8" transform="rotate(25 390 168)"/><circle cx="500" cy="201" r="27" fill="#2110b8"/></g>
  <g transform="translate(540 70)"><circle cx="150" cy="94" r="58" fill="#ffa58d"/><path d="M92 65c15-82 123-66 130 16l-1 168c-37 2-72-2-104-13V100z" fill="#2110b8"/><path d="M55 216c58-48 190-55 280 13l-36 195H86z" fill="#34958e"/><path d="M93 422h86l-5 165H73z" fill="#2110b8"/><path d="M190 422h88l28 165H190z" fill="#2110b8"/><path d="M67 222l-92-70" stroke="#ffa58d" stroke-width="45" stroke-linecap="round" fill="none"/><rect x="-48" y="116" width="105" height="34" rx="17" fill="#2110b8" transform="rotate(-36 -48 116)"/><circle cx="45" cy="88" r="29" fill="#2110b8"/><path d="M324 236l78 80" stroke="#ffa58d" stroke-width="45" stroke-linecap="round" fill="none"/></g>
</symbol>
<symbol id="story" viewBox="0 0 540 420"><rect x="40" y="60" width="460" height="280" rx="32" fill="#f2fffb"/><path d="M90 280h360" stroke="#2110b8" stroke-width="8" stroke-linecap="round"/><path d="M118 236c66-80 110-60 154 0s88 59 150-20" fill="none" stroke="#34a39b" stroke-width="18" stroke-linecap="round"/><circle cx="145" cy="155" r="48" fill="#2110b8"/><path d="M225 120h175M225 170h120" stroke="#111827" stroke-width="18" stroke-linecap="round" opacity=".8"/></symbol>
<symbol id="coach" viewBox="0 0 540 420"><circle cx="270" cy="210" r="150" fill="#f5f3ff"/><path d="M155 290c35-68 85-103 150-103 57 0 103 28 138 83" fill="none" stroke="#34a39b" stroke-width="28" stroke-linecap="round"/><circle cx="225" cy="150" r="48" fill="#ffa58d"/><circle cx="342" cy="145" r="42" fill="#2110b8"/><path d="M145 312h250" stroke="#2110b8" stroke-width="16" stroke-linecap="round"/></symbol>
</svg>
